HIERARCHY
ROOT Hips
{
	OFFSET 0.000000 8.830580 0.000000
	CHANNELS 6 Xposition Yposition Zposition Zrotation Yrotation Xrotation 
	JOINT Spine
	{
		OFFSET 0.000000 0.010000 0.000000
		CHANNELS 3 Zrotation Yrotation Xrotation
		JOINT Spine1
		{
			OFFSET 0.000000 2.459130 0.000000
			CHANNELS 3 Zrotation Yrotation Xrotation
			JOINT Neck
			{
				OFFSET 0.000000 2.484630 0.000000
				CHANNELS 3 Zrotation Yrotation Xrotation
				JOINT Head_virtual
				{
					OFFSET 0.000000 0.000000 0.000000
					CHANNELS 3 Zrotation Yrotation Xrotation
					JOINT Head
					{
						OFFSET 0.000000 0.927525 0.000000
						CHANNELS 3 Zrotation Yrotation Xrotation
						End Site
						{
							OFFSET 0.000000 0.000000 0.000000
						}
					}
				}
				JOINT LeftUpArm_virtual
				{
					OFFSET 0.000000 0.000000 0.000000
					CHANNELS 3 Zrotation Yrotation Xrotation
					JOINT LeftUpArm
					{
						OFFSET 1.248820 0.000000 0.000000
						CHANNELS 3 Zrotation Yrotation Xrotation
						JOINT LeftForeArm
						{
							OFFSET 2.597580 0.000000 0.000000
							CHANNELS 3 Zrotation Yrotation Xrotation
							JOINT LeftHand
							{
								OFFSET 2.455420 0.000000 0.000000
								CHANNELS 3 Zrotation Yrotation Xrotation
								End Site
								{
									OFFSET 0.000000 0.000000 0.000000
								}
							}
						}
					}
				}
				JOINT RightUpArm_virtual
				{
					OFFSET -0.000000 -0.000000 -0.000000
					CHANNELS 3 Zrotation Yrotation Xrotation
					JOINT RightUpArm
					{
						OFFSET -1.248820 -0.000000 -0.000000
						CHANNELS 3 Zrotation Yrotation Xrotation
						JOINT RightForeArm
						{
							OFFSET -2.597580 -0.000000 -0.000000
							CHANNELS 3 Zrotation Yrotation Xrotation
							JOINT RightHand
							{
								OFFSET -2.455420 -0.000000 -0.000000
								CHANNELS 3 Zrotation Yrotation Xrotation
								End Site
								{
									OFFSET 0.000000 0.000000 0.000000
								}
							}
						}
					}
				}
			}
		}
	}
	JOINT LeftUpLeg
	{
		OFFSET 1.271939 0.000000 0.000000
		CHANNELS 3 Zrotation Yrotation Xrotation
		JOINT LeftLowLeg
		{
			OFFSET 0.000000 -4.342910 0.000000
			CHANNELS 3 Zrotation Yrotation Xrotation
			JOINT LeftFoot
			{
				OFFSET 0.000000 -4.487670 0.000000
				CHANNELS 3 Zrotation Yrotation Xrotation
				JOINT LeftToeBase
				{
					OFFSET 0.000000 0.000000 1.515070
					CHANNELS 3 Zrotation Yrotation Xrotation
					End Site
					{
						OFFSET 0.000000 0.000000 0.000000
					}
				}
			}
		}
	}
	JOINT RightUpLeg
	{
		OFFSET -1.271939 0.000000 0.000000
		CHANNELS 3 Zrotation Yrotation Xrotation
		JOINT RightLowLeg
		{
			OFFSET 0.000000 -4.342910 0.000000
			CHANNELS 3 Zrotation Yrotation Xrotation
			JOINT RightFoot
			{
				OFFSET 0.000000 -4.487670 0.000000
				CHANNELS 3 Zrotation Yrotation Xrotation
				JOINT RightToeBase
				{
					OFFSET 0.000000 0.000000 1.515070
					CHANNELS 3 Zrotation Yrotation Xrotation
					End Site
					{
						OFFSET 0.000000 0.000000 0.000000
					}
				}
			}
		}
	}
}
MOTION
Frames: 8
Frame Time: 0.041667
-18.398472 6.386716 47.670701 178.433614 -2.443813 159.184813 -1.046895 7.943947 5.293945 -2.253281 1.090767 22.198237 0.000000 0.000000 0.000000 18.373726 -23.540028 -13.500377 -10.915064 13.852565 -91.645001 -25.222500 -8.264040 7.008310 -52.650799 -43.849998 47.368900 0.000000 -11.885600 0.000000 32.375999 6.799730 48.880299 28.895100 4.833040 4.698940 60.888199 34.718300 5.854004 180.000000 38.261993 -180.000000 25.339800 17.387899 -34.785999 6.443682 6.103368 -48.463605 0.000000 0.000000 59.042198 -21.257159 2.673118 23.453386 0.000000 0.000000 -19.249370 7.490555 2.293843 -66.458659 0.000000 0.000000 120.227997 29.453075 7.444087 15.685252 0.000000 0.000000 -31.162500 
-18.402317 6.397019 47.652547 178.677551 -2.608990 159.470370 -1.187583 7.740593 5.072813 -1.897175 0.933042 22.250009 0.000000 0.000000 0.000000 18.260245 -23.372687 -13.570967 -10.369054 13.895871 -91.522546 -25.128599 -8.117910 6.986190 -52.844101 -43.355400 48.574501 0.000000 -12.154600 0.000000 33.570000 6.631850 48.939899 28.631800 5.030420 4.515680 61.099998 34.429199 5.750000 180.000000 38.212006 180.000000 25.601200 17.610701 -34.641602 6.491734 6.305362 -48.268930 0.000000 0.000000 58.056099 -21.271584 2.960306 23.371617 0.000000 0.000000 -19.198540 7.651542 2.339763 -65.707712 0.000000 0.000000 120.939003 30.206814 8.171424 15.499479 0.000000 0.000000 -33.474501 
-18.406698 6.406401 47.630289 178.906315 -2.768654 159.868601 -1.388797 7.563756 4.705645 -1.488406 0.798159 22.279078 0.000000 0.000000 0.000000 18.576140 -23.336201 -13.620188 -10.087279 13.982445 -91.524855 -25.099899 -8.100920 7.106390 -52.936298 -42.905998 49.405998 0.000000 -12.259600 0.000000 34.395401 6.653420 48.732101 28.500299 5.064290 4.979610 60.978802 34.806999 5.247009 -180.000000 38.229996 180.000000 25.785801 18.020500 -34.442799 6.510282 6.540918 -48.139672 0.000000 0.000000 57.186199 -21.271982 3.182666 23.388276 0.000000 0.000000 -19.023090 7.663380 2.496291 -65.245853 0.000000 0.000000 121.676002 27.237302 9.386469 14.833843 0.000000 0.000000 -36.715300 
-18.413568 6.414850 47.608136 179.132682 -2.859585 160.237972 -1.528019 7.411048 4.304717 -1.075318 0.703202 22.503188 0.000000 0.000000 0.000000 18.909120 -23.179135 -13.984536 -9.682681 14.199029 -91.306698 -25.042801 -8.076000 7.246750 -53.074600 -42.651798 49.690102 0.000000 -12.209400 0.000000 35.013901 6.247230 48.528198 28.146799 5.265440 4.703100 61.283901 34.450001 5.188995 180.000000 38.102997 180.000000 26.003000 18.242300 -34.254299 6.578337 6.767576 -47.894880 0.000000 0.000000 56.384399 -21.460236 3.306114 23.474066 0.000000 0.000000 -19.066260 7.671778 2.695795 -64.776367 0.000000 0.000000 122.334999 21.908214 10.280317 12.875583 0.000000 0.000000 -36.727100 
-18.421593 6.423298 47.586284 179.357316 -2.873714 160.539742 -1.589288 7.298055 3.960939 -0.759109 0.640771 22.734101 0.000000 0.000000 0.000000 19.356668 -22.979517 -14.211039 -9.321326 14.472774 -91.221131 -24.981400 -8.142970 7.276910 -53.183601 -42.313599 49.585201 0.000000 -12.021400 0.000000 35.478100 5.777590 48.051399 28.022600 5.321890 4.988090 61.286400 34.774899 4.851013 180.000000 38.113998 180.000000 26.309799 18.703100 -34.191399 6.707265 6.987944 -47.468123 0.000000 0.000000 55.609299 -21.661444 3.336919 23.484852 0.000000 0.000000 -19.373450 7.460461 3.057106 -64.469788 0.000000 0.000000 122.750999 19.887398 11.316551 12.341400 0.000000 0.000000 -38.051100 
-18.431459 6.430505 47.565932 179.538073 -2.813004 160.829817 -1.643947 7.184425 3.596020 -0.450158 0.578411 23.099645 0.000000 0.000000 0.000000 19.709560 -22.681968 -14.533657 -8.887527 14.792090 -91.148301 -24.963699 -8.192550 7.318540 -53.101398 -42.132500 49.185001 0.000000 -11.958900 0.000000 35.678600 5.845690 47.502102 27.813000 5.482410 4.845720 61.532001 34.715401 4.843994 -180.000000 38.048996 -180.000000 26.501600 19.022400 -33.850201 6.826073 7.252707 -46.928553 0.000000 0.000000 54.858200 -20.960014 3.098205 23.096350 0.000000 0.000000 -18.762970 7.169776 3.387945 -64.401833 0.000000 0.000000 122.969002 18.635745 12.131887 12.309210 0.000000 0.000000 -39.573500 
-18.444592 6.435871 47.547082 179.674838 -2.709506 161.111927 -1.625847 7.093670 3.260010 -0.268140 0.521996 23.440131 0.000000 0.000000 0.000000 20.258305 -22.458635 -14.771332 -8.648225 15.116039 -91.193687 -24.993500 -8.302060 7.356720 -52.817902 -41.948799 48.507500 0.000000 -11.968500 0.000000 35.621101 6.266070 46.606499 27.728399 5.548020 4.871690 61.668900 34.897499 4.740997 -180.000000 38.061005 -180.000000 26.691900 19.411699 -33.518002 6.744635 7.687681 -46.302419 0.000000 0.000000 54.097599 -17.143563 1.648586 21.567924 0.000000 0.000000 -17.544530 6.753023 3.778942 -64.631263 0.000000 0.000000 123.061996 18.835331 13.097903 12.971186 0.000000 0.000000 -40.001900 
-18.460000 6.438947 47.530230 179.807132 -2.507120 161.370977 -1.481073 7.072873 3.018461 -0.154175 0.534398 23.719296 0.000000 0.000000 0.000000 20.778187 -22.233665 -14.949397 -8.474262 15.425814 -91.330489 -25.041300 -8.469730 7.394400 -52.482700 -41.793098 47.784698 0.000000 -11.916200 0.000000 35.326900 6.717010 45.907902 27.650499 5.587880 4.576070 61.962002 34.738201 4.813995 180.000000 38.059998 180.000000 26.981800 19.924601 -33.231499 6.877251 7.947541 -45.536057 0.000000 0.000000 53.374001 -17.136822 0.014652 18.764521 0.000000 0.000000 -17.216440 6.445525 4.113296 -65.022158 0.000000 0.000000 123.061996 19.922174 13.733710 14.194534 0.000000 0.000000 -41.268299 
